<svg width="263" height="130" viewBox="0 0 263 130" fill="none" xmlns="http://www.w3.org/2000/svg">
<g filter="url(#filter0_d_115_2795)">
<rect x="46" y="46.5254" width="29.3907" height="29.3907" rx="14.6953" fill="white" shape-rendering="crispEdges"/>
<path d="M64.3868 61.7227L64.8535 58.6461H61.9355V56.6496C61.9355 55.8079 62.3431 54.9874 63.65 54.9874H64.9766V52.368C64.9766 52.368 63.7727 52.1602 62.6217 52.1602C60.2186 52.1602 58.6478 53.6337 58.6478 56.3013V58.6461H55.9766V61.7227H58.6478V69.1602H61.9355V61.7227H64.3868Z" fill="#FF7900"/>
</g>
<g filter="url(#filter1_d_115_2795)">
<rect x="90.5293" y="46.5254" width="29.3907" height="29.3907" rx="14.6953" fill="white" shape-rendering="crispEdges"/>
<path d="M110.435 57.4C110.444 57.5422 110.444 57.6844 110.444 57.8266C110.444 62.1633 107.351 67.1602 101.697 67.1602C99.9556 67.1602 98.3376 66.6218 96.9766 65.6875C97.224 65.7179 97.462 65.7281 97.7189 65.7281C99.1561 65.7281 100.479 65.2102 101.536 64.3266C100.184 64.2961 99.0514 63.3516 98.6612 62.0515C98.8516 62.082 99.0419 62.1023 99.2418 62.1023C99.5178 62.1023 99.7938 62.0617 100.051 61.9906C98.6422 61.6859 97.5857 60.3656 97.5857 58.7711V58.7305C97.9949 58.9742 98.4709 59.1266 98.9753 59.1469C98.1472 58.5578 97.6047 57.5523 97.6047 56.4148C97.6047 55.8055 97.757 55.2469 98.0235 54.7594C99.5368 56.75 101.812 58.05 104.362 58.1922C104.315 57.9484 104.286 57.6945 104.286 57.4406C104.286 55.6328 105.657 54.1602 107.36 54.1602C108.246 54.1602 109.045 54.5563 109.607 55.1961C110.301 55.0539 110.968 54.7797 111.558 54.4039C111.329 55.1656 110.844 55.8055 110.206 56.2117C110.825 56.1407 111.425 55.9578 111.977 55.7039C111.558 56.3539 111.034 56.9328 110.435 57.4Z" fill="#FF7900"/>
</g>
<g filter="url(#filter2_d_115_2795)">
<rect x="135.057" y="46.5254" width="29.3907" height="29.3907" rx="14.6953" fill="white" shape-rendering="crispEdges"/>
<path d="M156.663 57.8813C156.491 57.2038 155.982 56.6703 155.337 56.4892C154.167 56.1602 149.477 56.1602 149.477 56.1602C149.477 56.1602 144.786 56.1602 143.616 56.4892C142.971 56.6703 142.463 57.2038 142.29 57.8813C141.977 59.1092 141.977 61.6712 141.977 61.6712C141.977 61.6712 141.977 64.2333 142.29 65.4613C142.463 66.1388 142.971 66.65 143.616 66.8311C144.786 67.1602 149.477 67.1602 149.477 67.1602C149.477 67.1602 154.167 67.1602 155.337 66.8311C155.982 66.65 156.491 66.1388 156.663 65.4613C156.977 64.2333 156.977 61.6712 156.977 61.6712C156.977 61.6712 156.977 59.1092 156.663 57.8813ZM147.942 63.9974V59.3451L151.863 61.6713L147.942 63.9974Z" fill="#FF7900"/>
</g>
<g filter="url(#filter3_d_115_2795)">
<rect x="179.586" y="46" width="29.3907" height="29.3907" rx="14.6953" fill="white" shape-rendering="crispEdges"/>
<path d="M193.978 56.8143C191.708 56.8143 189.877 58.5314 189.877 60.6602C189.877 62.7889 191.708 64.5059 193.978 64.5059C196.248 64.5059 198.08 62.7889 198.08 60.6602C198.08 58.5314 196.248 56.8143 193.978 56.8143ZM193.978 63.1604C192.511 63.1604 191.312 62.0392 191.312 60.6602C191.312 59.2812 192.508 58.1599 193.978 58.1599C195.449 58.1599 196.645 59.2812 196.645 60.6602C196.645 62.0392 195.445 63.1604 193.978 63.1604ZM199.204 56.657C199.204 57.1558 198.776 57.5541 198.247 57.5541C197.716 57.5541 197.291 57.1524 197.291 56.657C197.291 56.1617 197.719 55.76 198.247 55.76C198.776 55.76 199.204 56.1617 199.204 56.657ZM201.92 57.5674C201.86 56.3658 201.567 55.3015 200.628 54.4245C199.693 53.5476 198.558 53.2731 197.276 53.2129C195.956 53.1426 191.997 53.1426 190.677 53.2129C189.399 53.2698 188.264 53.5442 187.325 54.4212C186.386 55.2981 186.097 56.3625 186.033 57.5641C185.958 58.8025 185.958 62.5145 186.033 63.7529C186.093 64.9545 186.386 66.0188 187.325 66.8958C188.264 67.7727 189.395 68.0472 190.677 68.1075C191.997 68.1777 195.956 68.1777 197.276 68.1075C198.558 68.0505 199.693 67.7761 200.628 66.8958C201.563 66.0188 201.856 64.9545 201.92 63.7529C201.995 62.5145 201.995 58.8059 201.92 57.5674ZM200.214 65.0816C199.936 65.7377 199.397 66.2431 198.694 66.5075C197.641 66.8991 195.142 66.8087 193.978 66.8087C192.815 66.8087 190.313 66.8958 189.263 66.5075C188.564 66.2465 188.025 65.741 187.743 65.0816C187.325 64.0943 187.421 61.7513 187.421 60.6602C187.421 59.569 187.328 57.2227 187.743 56.2386C188.021 55.5826 188.56 55.0772 189.263 54.8128C190.316 54.4212 192.815 54.5115 193.978 54.5115C195.142 54.5115 197.644 54.4245 198.694 54.8128C199.393 55.0739 199.932 55.5793 200.214 56.2386C200.632 57.226 200.535 59.569 200.535 60.6602C200.535 61.7513 200.632 64.0976 200.214 65.0816Z" fill="#FF7900"/>
</g>
<defs>
<filter id="filter0_d_115_2795" x="0" y="0.525391" width="129.391" height="129.391" filterUnits="userSpaceOnUse" color-interpolation-filters="sRGB">
<feFlood flood-opacity="0" result="BackgroundImageFix"/>
<feColorMatrix in="SourceAlpha" type="matrix" values="0 0 0 0 0 0 0 0 0 0 0 0 0 0 0 0 0 0 127 0" result="hardAlpha"/>
<feOffset dx="4" dy="4"/>
<feGaussianBlur stdDeviation="25"/>
<feComposite in2="hardAlpha" operator="out"/>
<feColorMatrix type="matrix" values="0 0 0 0 0.388235 0 0 0 0 0.4 0 0 0 0 0.945098 0 0 0 0.15 0"/>
<feBlend mode="normal" in2="BackgroundImageFix" result="effect1_dropShadow_115_2795"/>
<feBlend mode="normal" in="SourceGraphic" in2="effect1_dropShadow_115_2795" result="shape"/>
</filter>
<filter id="filter1_d_115_2795" x="44.5293" y="0.525391" width="129.391" height="129.391" filterUnits="userSpaceOnUse" color-interpolation-filters="sRGB">
<feFlood flood-opacity="0" result="BackgroundImageFix"/>
<feColorMatrix in="SourceAlpha" type="matrix" values="0 0 0 0 0 0 0 0 0 0 0 0 0 0 0 0 0 0 127 0" result="hardAlpha"/>
<feOffset dx="4" dy="4"/>
<feGaussianBlur stdDeviation="25"/>
<feComposite in2="hardAlpha" operator="out"/>
<feColorMatrix type="matrix" values="0 0 0 0 0.388235 0 0 0 0 0.4 0 0 0 0 0.945098 0 0 0 0.15 0"/>
<feBlend mode="normal" in2="BackgroundImageFix" result="effect1_dropShadow_115_2795"/>
<feBlend mode="normal" in="SourceGraphic" in2="effect1_dropShadow_115_2795" result="shape"/>
</filter>
<filter id="filter2_d_115_2795" x="89.0566" y="0.525391" width="129.391" height="129.391" filterUnits="userSpaceOnUse" color-interpolation-filters="sRGB">
<feFlood flood-opacity="0" result="BackgroundImageFix"/>
<feColorMatrix in="SourceAlpha" type="matrix" values="0 0 0 0 0 0 0 0 0 0 0 0 0 0 0 0 0 0 127 0" result="hardAlpha"/>
<feOffset dx="4" dy="4"/>
<feGaussianBlur stdDeviation="25"/>
<feComposite in2="hardAlpha" operator="out"/>
<feColorMatrix type="matrix" values="0 0 0 0 0.388235 0 0 0 0 0.4 0 0 0 0 0.945098 0 0 0 0.15 0"/>
<feBlend mode="normal" in2="BackgroundImageFix" result="effect1_dropShadow_115_2795"/>
<feBlend mode="normal" in="SourceGraphic" in2="effect1_dropShadow_115_2795" result="shape"/>
</filter>
<filter id="filter3_d_115_2795" x="133.586" y="0" width="129.391" height="129.391" filterUnits="userSpaceOnUse" color-interpolation-filters="sRGB">
<feFlood flood-opacity="0" result="BackgroundImageFix"/>
<feColorMatrix in="SourceAlpha" type="matrix" values="0 0 0 0 0 0 0 0 0 0 0 0 0 0 0 0 0 0 127 0" result="hardAlpha"/>
<feOffset dx="4" dy="4"/>
<feGaussianBlur stdDeviation="25"/>
<feComposite in2="hardAlpha" operator="out"/>
<feColorMatrix type="matrix" values="0 0 0 0 0.388235 0 0 0 0 0.4 0 0 0 0 0.945098 0 0 0 0.15 0"/>
<feBlend mode="normal" in2="BackgroundImageFix" result="effect1_dropShadow_115_2795"/>
<feBlend mode="normal" in="SourceGraphic" in2="effect1_dropShadow_115_2795" result="shape"/>
</filter>
</defs>
</svg>
